<svg width="100" height="100" viewBox="0 0 100 100" fill="none" xmlns="http://www.w3.org/2000/svg">
<path d="M9.15426 91.5866L46.3979 82.2806C48.6471 81.7186 50.3709 79.9113 50.8257 77.6382L50.9567 76.9837C51.0342 76.5962 51.0733 76.2019 51.0733 75.8067L51.0733 10.5975C51.0733 9.14249 49.8935 7.96282 48.4383 7.96283C48.2112 7.96282 47.985 7.9922 47.7653 8.05023L7.6779 18.6425C5.93715 19.1024 4.49517 20.3197 3.74989 21.9585L2.98463 23.6412C2.63 24.4209 2.44651 25.2677 2.44651 26.1244L2.44651 86.3491C2.44651 87.9061 3.11898 89.3874 4.29122 90.4125C5.62228 91.5766 7.43895 92.0152 9.15426 91.5866Z" fill="#3C3C3C"/>
<path d="M48.8955 76.1591L48.8955 11.0291C48.8955 10.6999 48.7259 10.3939 48.4467 10.2193C48.223 10.0793 47.9515 10.0381 47.6964 10.1054L8.95468 20.3249C7.32432 20.7549 5.95034 21.8511 5.16906 23.3451L5.07838 23.5185C4.62977 24.3763 4.39546 25.33 4.39546 26.2981L4.39546 85.9167C4.39546 86.623 4.60456 87.3136 4.9964 87.9014C5.83536 89.1598 7.37495 89.7551 8.84215 89.3883L45.7754 80.155C47.3664 79.7572 48.5698 78.4538 48.8394 76.8363C48.8767 76.6125 48.8955 76.386 48.8955 76.1591Z" fill="white"/>
<path d="M91.2412 91.5866L53.9975 82.2806C51.7484 81.7186 50.0246 79.9113 49.5697 77.6382L49.4388 76.9837C49.3612 76.5962 49.3222 76.2019 49.3222 75.8067L49.3222 10.5975C49.3222 9.14249 50.502 7.96282 51.9571 7.96283C52.1843 7.96282 52.4105 7.9922 52.6301 8.05023L92.7175 18.6425C94.4583 19.1024 95.9003 20.3197 96.6456 21.9585L97.4108 23.6412C97.7654 24.4209 97.9489 25.2677 97.9489 26.1244L97.9489 86.3491C97.9489 87.9061 97.2765 89.3874 96.1042 90.4125C94.7732 91.5766 92.9565 92.0152 91.2412 91.5866Z" fill="#3C3C3C"/>
<path d="M51.5 76.1591L51.5 11.0291C51.5 10.6999 51.6696 10.3939 51.9487 10.2193C52.1724 10.0793 52.444 10.0381 52.6991 10.1054L91.4408 20.3249C93.0711 20.7549 94.4451 21.8511 95.2264 23.3451L95.3171 23.5185C95.7657 24.3763 96 25.33 96 26.2981L96 85.9167C96 86.623 95.7909 87.3136 95.399 87.9014C94.5601 89.1598 93.0205 89.7551 91.5533 89.3883L54.62 80.155C53.029 79.7572 51.8257 78.4538 51.556 76.8363C51.5187 76.6125 51.5 76.386 51.5 76.1591Z" fill="white"/>
<path d="M24.7334 71.1839L14.2334 73.7039C13.6045 73.8549 13 73.3782 13 72.7316V27.4629C13 27.2072 13.2073 27 13.4629 27C13.4876 27 13.5134 26.9978 13.5378 26.9939C44.2621 22.0564 46.4623 43.6641 34.2874 50.3464C34.1135 50.4419 34 50.6244 34 50.8228C34 50.9378 34.0373 51.0497 34.1063 51.1418L40 59L45.4987 65.7676C45.9628 66.3388 45.6716 67.1988 44.9559 67.3706L34.5974 69.8566C34.231 69.9445 33.8462 69.819 33.6021 69.5318L27.2619 62.0728C26.6593 61.3639 25.5 61.79 25.5 62.7205V70.2116C25.5 70.6739 25.183 71.076 24.7334 71.1839Z" fill="#3C3C3C"/>
<path d="M15.2385 70.2213V30.3031C15.2385 29.8511 15.5417 29.4554 15.978 29.3376L16.6104 29.1669C42.706 25.0464 42.9967 45.5353 31.3965 49.3766C31.1492 49.4585 30.9396 49.6379 30.835 49.8765C30.7032 50.1774 30.7499 50.5266 30.9562 50.7822L42.0268 64.5026C42.4893 65.0758 42.1945 65.9354 41.4775 66.104L35.1863 67.5835C34.8204 67.6695 34.4371 67.5431 34.1942 67.2562L25.437 56.9122C24.8352 56.2014 23.6738 56.6269 23.6738 57.5584V68.7079C23.6738 69.172 23.3545 69.5751 22.9027 69.6813L16.4674 71.1947C15.8398 71.3423 15.2385 70.8661 15.2385 70.2213Z" fill="#D98D33"/>
<path d="M23 48C36.9603 46.3628 35.6912 32.4968 23 34.1341V48Z" fill="#3C3C3C"/>
<path d="M25 45.202V36.3338C25 36.1494 25.1494 36 25.3338 36C33.9956 36.7294 31.5095 43.9724 25.3688 45.4914C25.3458 45.4971 25.3218 45.5 25.298 45.5C25.1334 45.5 25 45.3666 25 45.202Z" fill="white"/>
<path d="M61 70.5V24L73.5 27C90.5 31.5 92.5 46 82 52C93 59 89 73.5 75 73.5L71.9388 73L61 70.5Z" fill="#3C3C3C"/>
<path d="M63 67.7073V28.2551C63 27.6127 63.5972 27.1369 64.2234 27.2804L71.5214 28.9531C90.6164 33.0886 89.0806 49.9058 77.0092 50.6665C76.7708 50.6815 76.5742 50.8767 76.5742 51.1156C76.5742 51.296 76.6906 51.4606 76.8571 51.5301C92.0788 57.8841 86.318 74.166 71.5214 70.4571L63.7766 68.682C63.3222 68.5779 63 68.1735 63 67.7073Z" fill="#D98D33"/>
<path d="M69 46V33.5L71 34C88.5 39 80 49.5 71 46.5758L69 46Z" fill="#3C3C3C"/>
<path d="M71 36C82.546 39.068 80.7496 46.9798 71 44.5399V36Z" fill="white"/>
<path d="M69 66V53.5L71 54C88.5 59 80 69.5 71 66.5758L69 66Z" fill="#3C3C3C"/>
<path d="M71 56C82.546 59.068 80.7496 66.9798 71 64.5399V56Z" fill="white"/>
</svg>
