<svg width="33" height="33" viewBox="0 0 33 33" fill="none" xmlns="http://www.w3.org/2000/svg">
<path fill-rule="evenodd" clip-rule="evenodd" d="M11.3258 10.9703L14.9368 13.5893C15.4162 13.937 15.7 14.4934 15.7 15.0857V31.7C15.7 32.418 16.282 33 17 33C17.718 33 18.3 32.418 18.3 31.7V15.163C18.3 14.5222 18.607 13.9202 19.1258 13.5439L22.6742 10.9703C23.193 10.5941 23.5 9.99213 23.5 9.35133V2C23.5 0.89543 22.6046 0 21.5 0H13.2083H12.5C11.3954 0 10.5 0.895431 10.5 2V9.35133C10.5 9.99213 10.807 10.5941 11.3258 10.9703ZM15.25 3C15.25 2.72386 15.4739 2.5 15.75 2.5C16.0261 2.5 16.25 2.72386 16.25 3V9C16.25 9.27614 16.0261 9.5 15.75 9.5C15.4739 9.5 15.25 9.27614 15.25 9V3ZM13.25 2.5C12.9739 2.5 12.75 2.72386 12.75 3V9C12.75 9.27614 12.9739 9.5 13.25 9.5C13.5261 9.5 13.75 9.27614 13.75 9V3C13.75 2.72386 13.5261 2.5 13.25 2.5ZM17.75 3C17.75 2.72386 17.9739 2.5 18.25 2.5C18.5261 2.5 18.75 2.72386 18.75 3V9C18.75 9.27614 18.5261 9.5 18.25 9.5C17.9739 9.5 17.75 9.27614 17.75 9V3ZM20.75 2.5C20.4739 2.5 20.25 2.72386 20.25 3V9C20.25 9.27614 20.4739 9.5 20.75 9.5C21.0261 9.5 21.25 9.27614 21.25 9V3C21.25 2.72386 21.0261 2.5 20.75 2.5Z" fill="black"/>
</svg>
